<?xml version="1.0" encoding="UTF-8"?>
<svg enable-background="new 0 0 113.39 56.69" version="1.1" viewBox="0 0 113.39 56.69" xml:space="preserve" xmlns="http://www.w3.org/2000/svg" xmlns:xlink="http://www.w3.org/1999/xlink">
<rect width="56.693" height="56.692" fill="#EA6424"/>
<rect x="56.693" width="56.692" height="56.693" fill="#202A30"/>
	<g fill="#fff">
		<path d="m19.84 47.907c0.041-2e-3 0.084-0.01 0.131-0.057 5e-3 -5e-3 9e-3 -0.01 0.013-0.015 3e-3 -4e-3 5e-3 -7e-3 8e-3 -0.01l0.02-0.021-0.189-0.096-0.01 0.014c-0.015 0.02-0.035 0.043-0.056 0.065-0.016 0.016-0.029 0.023-0.041 0.023-0.014 0-0.028-0.014-0.04-0.026l-0.459-0.456c0.136 5e-3 0.247-9e-3 0.303-0.04l0.185-0.108 0.244 0.22 0.142 2e-3 -0.28-0.284 0.393-0.233 0.167 0.167c0.043 0.042 0.047 0.061 0 0.185l-0.01 0.025 0.212 0.013 7e-3 -8e-3c0.052-0.06 0.049-0.113-7e-3 -0.17l-0.273-0.27 0.052-0.034-0.159-0.071c-0.133-0.115-0.193-0.16-0.247-0.187-0.07-0.031-0.138-0.053-0.202-0.061l-0.03-4e-3 0.031 0.12 0.019-4e-3c0.01-1e-3 0.02-3e-3 0.03-3e-3 0.07 0 0.147 0.042 0.229 0.124l0.04 0.039-0.401 0.237-0.146-8e-3 0.052 0.064c-0.106 0.069-0.187 0.115-0.289 0.165-0.033 0.017-0.059 0.024-0.086 0.024-0.046 0-0.1-0.023-0.171-0.062l-5e-3 -2e-3h-0.155l0.239 0.237c0.046 0.046 0.142 0.148 0.216 0.229 0.03 0.034 0.057 0.064 0.081 0.092 0.036 0.041 0.065 0.074 0.088 0.097 0.06 0.06 0.107 0.088 0.275 0.088 0.024 2e-3 0.05 1e-3 0.079 0z"/>
		<path d="m20.777 47.979c-0.035-0.132-0.015-0.186 0.042-0.252 0.035-0.04 0.108-0.08 0.183-0.08 0.043 0 0.081 0.013 0.112 0.04 0.062 0.053 0.064 0.095 9e-3 0.196l-0.014 0.027 0.214 0.024 7e-3 -0.011c0.074-0.115 0.026-0.222-0.044-0.282-0.1-0.086-0.258-0.096-0.304-0.097h-0.013c-0.139 0-0.266 0.057-0.351 0.155-0.092 0.107-0.068 0.223-0.044 0.335 0.022 0.108 0.044 0.211-0.037 0.304-0.057 0.065-0.138 0.104-0.224 0.104-0.076 0-0.15-0.029-0.215-0.086-0.106-0.091-0.123-0.21-0.108-0.269 3e-3 -0.015 0.017-0.052 0.06-0.131l0.015-0.027-0.076-6e-3 -0.21 0.13v0.011c-1e-3 0.141 0.044 0.233 0.16 0.333 0.111 0.096 0.244 0.145 0.397 0.145 9e-3 0 0.019-1e-3 0.028-1e-3 0.176-7e-3 0.309-0.062 0.396-0.162 0.077-0.091 0.08-0.158 0.017-0.4z"/>
		<path d="m21.509 48.95c0.073-0.096 0.072-0.163-8e-3 -0.4-0.043-0.129-0.026-0.185 0.026-0.254 0.034-0.045 0.112-0.092 0.19-0.092 0.038 0 0.072 0.011 0.101 0.033 0.065 0.049 0.07 0.091 0.022 0.196l-0.013 0.027 0.215 9e-3 6e-3 -0.011c0.067-0.119 0.012-0.222-0.062-0.278-0.092-0.07-0.228-0.077-0.282-0.077h-0.026c-0.143 5e-3 -0.272 0.07-0.354 0.178-0.085 0.112-0.054 0.227-0.023 0.338 0.029 0.107 0.057 0.206-0.017 0.305-0.056 0.074-0.145 0.118-0.236 0.118-0.069 0-0.138-0.024-0.201-0.072-0.112-0.084-0.136-0.203-0.125-0.262 2e-3 -0.015 0.013-0.052 0.052-0.134l0.013-0.028-0.076-1e-3 -0.202 0.143v0.011c8e-3 0.14 0.059 0.23 0.181 0.322 0.105 0.08 0.227 0.12 0.363 0.12 0.023 0 0.047-1e-3 0.071-4e-3 0.173-0.017 0.306-0.081 0.385-0.187z"/>
		<path d="m23.078 48.923l-0.323-0.206 0.043-0.044-0.17-0.037c-0.155-0.084-0.223-0.115-0.282-0.129-0.092-0.02-0.172-0.024-0.241-0.013l-0.025 4e-3 0.049 0.126 0.021-0.013c0.077-0.051 0.181-0.034 0.308 0.047l0.047 0.03-0.341 0.317-0.144 0.024 0.064 0.051c-0.089 0.09-0.157 0.151-0.247 0.223-0.04 0.033-0.072 0.046-0.114 0.046-0.034 0-0.076-9e-3 -0.146-0.028l-5e-3 -1e-3 -0.151 0.033 0.284 0.182c0.062 0.039 0.201 0.136 0.26 0.177 0.033 0.024 0.063 0.047 0.09 0.067 0.048 0.035 0.086 0.063 0.115 0.082 0.039 0.024 0.078 0.046 0.145 0.046 0.051 0 0.119-0.012 0.219-0.038 0.039-0.01 0.079-0.026 0.115-0.083 3e-3 -6e-3 6e-3 -0.012 9e-3 -0.017 2e-3 -4e-3 4e-3 -8e-3 7e-3 -0.012l0.016-0.023-0.206-0.055-7e-3 0.016c-0.01 0.023-0.025 0.051-0.041 0.075-0.021 0.032-0.035 0.032-0.039 0.032-0.012 0-0.026-9e-3 -0.04-0.018l-0.545-0.349c0.134-0.022 0.237-0.06 0.288-0.104l0.157-0.144 0.285 0.163 0.139-0.029-0.334-0.219 0.334-0.311 0.199 0.127c0.051 0.032 0.059 0.051 0.04 0.181l-4e-3 0.027 0.21-0.033 5e-3 -9e-3c0.037-0.065 0.024-0.117-0.044-0.161z"/>
		<path d="m25.147 49.788c-0.164-0.06-0.382-0.058-0.568 2e-3 -0.241 0.077-0.423 0.314-0.496 0.515-0.058 0.157-0.063 0.288-0.017 0.389 0.039 0.084 0.115 0.147 0.226 0.188 0.028 0.011 0.083 0.028 0.108 0.032l8e-3 1e-3c0.016 3e-3 0.03 5e-3 0.045 7e-3 0.102 0.259 0.218 0.448 0.446 0.531 0.066 0.024 0.119 0.035 0.168 0.035 0.053 0 0.101-0.015 0.142-0.042l9e-3 -7e-3 -0.04-0.299c-0.019 0-0.031 0.099-0.042 0.123-0.047 0.102-0.099 0.136-0.17 0.109-0.031-0.012-0.143-0.078-0.284-0.453 0.077-0.012 0.15-0.033 0.218-0.064 0.186-0.083 0.362-0.29 0.448-0.525 0.1-0.274 0.032-0.457-0.201-0.542zm-0.013 0.486c-0.142 0.389-0.338 0.511-0.483 0.543l-0.01-0.039-0.173 0.036-0.027-0.01c-0.1-0.036-0.158-0.106-0.172-0.207-0.013-0.094 0.013-0.193 0.038-0.26 0.108-0.295 0.336-0.501 0.556-0.501 0.041 0 0.082 7e-3 0.122 0.021 0.078 0.031 0.253 0.129 0.149 0.417z"/>
		<path d="m26.622 51.362c-0.076-9e-3 -0.103-0.013-0.191-0.033-0.015-3e-3 -0.019-7e-3 -0.021-9e-3 -5e-3 -9e-3 2e-3 -0.04 5e-3 -0.053 0.014-0.06 0.04-0.113 0.085-0.202l0.432-0.849-0.029-3e-3c-0.25-0.025-0.277-0.024-0.34 0.031l-0.027 0.024 0.129 0.039-0.433 0.849c-0.139 0.045-0.268 0.06-0.351 0.04-0.116-0.026-0.158-0.104-0.128-0.237 0.061-0.265 0.326-0.605 0.547-0.81 0.014-0.012 0.022-0.02 0.024-0.033 3e-3 -0.014 0-0.022-3e-3 -0.028-4e-3 -6e-3 -0.011-0.011-0.019-0.013h-7e-3c-8e-3 0-0.018 2e-3 -0.032 5e-3 -0.015 3e-3 -0.033 7e-3 -0.054 9e-3 -0.068-0.028-0.134-0.051-0.175-0.06-0.054-0.013-0.091-0.019-0.125-0.019s-0.066 6e-3 -0.101 0.018c-0.114 0.038-0.222 0.141-0.292 0.22l-0.021 0.024 0.148 0.04 5e-3 -0.021c0.023-0.104 0.112-0.14 0.186-0.14 0.019 0 0.038 2e-3 0.056 6e-3 0.059 0.014 0.113 0.043 0.16 0.073-0.198 0.202-0.456 0.492-0.514 0.741-0.015 0.066-0.023 0.161 0.023 0.236 0.031 0.05 0.082 0.083 0.151 0.099 0.026 6e-3 0.061 9e-3 0.103 9e-3 0.122 0 0.282-0.024 0.375-0.043l-0.022 0.084v4e-3c3e-3 0.024 0.02 0.053 0.054 0.062l0.277 0.024h5e-3c0.039 0 0.11-0.036 0.128-0.051l0.037-0.03-0.045-3e-3zm-0.118 0.067z"/>
		<path d="m27.905 51.456c-0.037-4e-3 -0.058-0.01-0.065-0.018-4e-3 -6e-3 -5e-3 -0.015-4e-3 -0.032 6e-3 -0.069 0.161-0.939 0.206-1.104l3e-3 -0.012-0.04-0.039-0.014 0.012c-0.056 0.047-0.079 0.059-0.109 0.056-0.035-3e-3 -0.077-0.014-0.119-0.024-0.047-0.013-0.103-0.022-0.165-0.027-0.054-5e-3 -0.107-1e-3 -0.15 0.015-0.065 0.024-0.182 0.114-0.241 0.165-0.041 0.035-0.073 0.075-0.095 0.118l-0.014 0.027 0.156 9e-3 2e-3 -0.02c0.01-0.107 0.104-0.166 0.25-0.151 0.056 5e-3 0.173 0.031 0.24 0.059l-0.475 0.556c-0.232 0.274-0.279 0.295-0.436 0.28-7e-3 0-0.02-3e-3 -0.035-5e-3 -0.014-3e-3 -0.029-6e-3 -0.044-9e-3l-0.014-1e-3 -0.09 0.155-0.012 0.022 0.024 7e-3c0.029 0.01 0.049 0.016 0.09 0.02 0.146 0.014 0.243-1e-3 0.474-0.271l0.11-0.129 0.341 0.03-0.081 0.388 1e-3 4e-3c7e-3 0.028 0.029 0.043 0.05 0.057l6e-3 4e-3h7e-3c0.121-0.012 0.219-0.022 0.374-0.044l9e-3 -1e-3 0.066-0.088-0.078-3e-3c-0.054-2e-3 -0.095-3e-3 -0.128-6e-3zm-0.113-0.87l-0.093 0.455-0.271-0.031 0.364-0.424z"/>
		<path d="m30.021 49.995c-0.031 1e-3 -0.067 0.012-0.081 0.016-0.022 8e-3 -0.207 0.138-0.241 0.177-0.028 0.033-0.072 0.093-0.107 0.152l-0.503 0.826-0.138-0.954-0.097 0.079c-0.019 0-0.038-1e-3 -0.058-3e-3 -0.042-2e-3 -0.086-5e-3 -0.125-3e-3 -0.101 5e-3 -0.182 0.022-0.253 0.092-0.059 0.06-0.12 0.144-0.159 0.22l-8e-3 0.016 0.125 0.085-2e-3 -0.041c-3e-3 -0.064 0.016-0.114 0.057-0.148 0.043-0.034 0.1-0.044 0.141-0.046 0.059-3e-3 0.136 7e-3 0.176 0.012l-0.126 0.61c-0.066 0.313-0.1 0.324-0.274 0.333h-0.01c-0.029 0-0.078-3e-3 -0.11-7e-3l-0.015-2e-3 -0.083 0.193 0.026 3e-3c0.015 3e-3 0.025 3e-3 0.034 3e-3 7e-3 0 0.013 0 0.021-1e-3 0.127-6e-3 0.186-0.019 0.265-0.057 0.052-0.025 0.193-0.201 0.221-0.33l0.126-0.577 0.116 0.949 0.104-0.087 0.514-0.905-0.172 0.897c2e-3 0.043 0.038 0.073 0.072 0.073 0.121-0.017 0.271-0.047 0.359-0.068l6e-3 -2e-3 0.088-0.096-0.051 4e-3c-0.018 2e-3 -0.037 4e-3 -0.056 6e-3 -0.041 3e-3 -0.081 8e-3 -0.117 9e-3 -0.069 2e-3 -0.072-0.019-0.073-0.041 0-0.015 0.013-0.096 0.023-0.149l0.173-0.958c0.012-0.066 0.04-0.101 0.088-0.102 0.025 0 0.085 0.012 0.103 0.018l0.02 7e-3 0.062-0.2-0.024-2e-3c-0.013-3e-3 -0.026-2e-3 -0.037-1e-3z"/>
		<path d="m32.515 49.342l-6e-3 -5e-3c-0.039-0.018-0.081-0.024-0.109-0.016-0.027 9e-3 -0.044 0.018-0.119 0.116l-0.011 0.015 0.014 0.013c0.055 0.049 0.087 0.096 0.104 0.151 0.061 0.191-0.043 0.511-0.106 0.652l-0.221 0.498-0.157-0.905 0.083-0.107-0.021-0.012c-0.023-0.012-0.043-0.014-0.068-7e-3l-0.247 0.078c-0.053 0.016-0.105 0.049-0.157 0.097-0.046 0.053-0.083 0.108-0.111 0.166l-0.012 0.024 0.119 0.018 3e-3 -0.019c0.017-0.102 0.106-0.155 0.156-0.171 9e-3 -3e-3 0.039-8e-3 0.062-0.01l0.208 1.165 0.153-0.089c0.047-0.027 0.324-0.72 0.389-0.896 0.14-0.386 0.143-0.534 0.099-0.675-0.01-0.026-0.028-0.064-0.045-0.081z"/>
		<path d="m33.032 49.413c0.084-0.039 0.101-0.065 0.148-0.155l0.026-0.05-0.469 0.197c-0.021 0.015-0.044 0.061-0.05 0.092l-6e-3 0.031 0.168-0.042 0.151 1.036c-0.098 0.046-0.108 0.056-0.15 0.156l-0.019 0.046 0.463-0.194c0.029-0.012 0.055-0.044 0.086-0.104l0.021-0.041-0.203 0.056-0.166-1.028z"/>
		<path d="m33.762 48.854l-0.02-0.074-0.127 0.155c-0.049 0.036-0.092 0.068-0.131 0.106-0.109 0.105-0.184 0.233-0.224 0.381l-8e-3 0.03 0.149-0.023-1e-3 -0.017c-3e-3 -0.131 0.069-0.253 0.21-0.354l0.201 0.828c0.038 0.154 0.025 0.209-0.146 0.327l-6e-3 4e-3 -0.053 0.178 0.042-0.02c0.03-0.015 0.06-0.029 0.09-0.043 0.061-0.028 0.124-0.058 0.185-0.091 0.204-0.109 0.319-0.182 0.385-0.24 0.077-0.069 0.268-0.323 0.287-0.539 0.016-0.173-0.026-0.362-0.119-0.534-0.123-0.227-0.366-0.254-0.714-0.074zm0.166 0.67l-0.143-0.571c0.093-0.048 0.19-0.071 0.27-0.069 0.124 6e-3 0.206 0.111 0.253 0.198 0.06 0.11 0.11 0.293 0.114 0.409 9e-3 0.287-0.146 0.409-0.283 0.483-0.072 0.038-0.129 0.064-0.184 0.09-0.017 9e-3 -0.034 0.017-0.052 0.024 0.097-0.216 0.083-0.332 0.025-0.564z"/>
		<path d="m35.848 48.637c-2e-3 -3e-3 -4e-3 -6e-3 -7e-3 -9e-3l-0.016-0.022-0.129 0.168 0.012 0.013c0.018 0.02 0.038 0.044 0.054 0.066 0.031 0.046 0.013 0.059-0.017 0.08l-0.532 0.368c0.031-0.135 0.037-0.244 0.016-0.306l-0.072-0.201 0.261-0.2 0.027-0.139-0.33 0.224-0.158-0.428 0.194-0.135c0.024-0.017 0.04-0.022 0.056-0.022 0.028 0 0.064 0.019 0.125 0.056l0.024 0.015 0.05-0.207-6e-3 -8e-3c-0.049-0.062-0.101-0.069-0.168-0.023l-0.315 0.219-0.024-0.057-0.1 0.143c-0.138 0.11-0.193 0.161-0.228 0.209-0.069 0.1-0.108 0.195-0.116 0.284l-2e-3 0.024 0.164-0.015-0.011-0.025c-0.046-0.109 2e-3 -0.212 0.149-0.313l0.046-0.031 0.161 0.437-0.034 0.143 0.072-0.04c0.05 0.119 0.079 0.203 0.11 0.314 0.025 0.083 9e-3 0.129-0.083 0.246l-0.031 0.156 0.277-0.191c0.055-0.039 0.177-0.116 0.265-0.172 0.039-0.024 0.074-0.045 0.105-0.063 0.047-0.027 0.083-0.05 0.11-0.068 0.08-0.055 0.116-0.1 0.149-0.332 8e-3 -0.053-1e-3 -0.094-0.032-0.138-7e-3 -0.01-0.011-0.015-0.016-0.02z"/>
		<path d="m37.224 47.963c0.025 0.134 0.018 0.188-0.034 0.232-0.083 0.071-0.314-0.019-0.672-0.262l-0.226-0.153c0.032-0.055 0.089-0.158 0.106-0.228 0.03-0.123-0.015-0.248-0.07-0.313-0.062-0.073-0.14-0.099-0.217-0.073-0.066 0.022-0.112 0.05-0.237 0.154l-0.033-0.069-0.107 0.206c-0.028 0.029-0.057 0.065-0.085 0.104-0.08 0.113-0.125 0.237-0.125 0.35v0.025l0.155-0.041-6e-3 -0.02c-0.031-0.108 5e-3 -0.224 0.097-0.321l0.312 0.614c0.142 0.281 0.102 0.376 0.052 0.427l-0.121 0.123-6e-3 0.178 0.332-0.283c0.085-0.072 0.096-0.096 0.139-0.245l0.018-0.064-0.216 0.184c0.019-0.224 0.013-0.331-0.099-0.551l0.348 0.246c0.178 0.127 0.332 0.189 0.47 0.189 0.103 0 0.196-0.035 0.277-0.104 2e-3 -1e-3 0.125-0.107 0.133-0.169l2e-3 -0.01-0.198-0.186 0.011 0.06zm-0.977-0.367c-3e-3 0.087-0.059 0.182-0.115 0.242l-0.208-0.416c0.072-0.059 0.118-0.083 0.155-0.083 0.03 0 0.058 0.017 0.09 0.055 0.039 0.044 0.08 0.127 0.078 0.202z"/>
		<path d="m37.272 47.586l-0.542-0.89c0.061-0.065 0.069-0.096 0.079-0.2l5e-3 -0.056-0.359 0.358c-0.015 0.022-0.018 0.074-0.012 0.104l7e-3 0.031 0.138-0.102 0.53 0.902c-0.075 0.081-0.079 0.095-0.079 0.202v0.049l0.354-0.354c0.022-0.021 0.035-0.062 0.042-0.128l4e-3 -0.046-0.167 0.13z"/>
	</g>
	<path d="m43.856 21.656c-0.3 0.84-0.373 1.974-1.831 2.685-0.16-0.711-0.425-1.927-1.468-2.447 1.975-1.163 1.55-3.14 1.55-3.14s-1.55 1.301-3.451 0.674c8e-3 -2e-3 3.336-0.251 3.513-2.832 0.102-1.126-0.622-2.687-2.086-3.252-1.453-0.561-2.283-2.13-2.286-2.138 0 0-1.113 2.224 1.218 3.021-1.338 0.658-0.681 1.969-0.681 1.969s0.292-0.507 0.855-0.689c-0.191 0.503-0.451 1.059-0.747 1.355-0.251 0.25-0.681 0.425-0.889 0.554 0.705-2.513-1.983-3.405-1.983-3.405s7e-3 0.029 0.017 0.08c0.018 0.36 0.288 2.746-1.159 2.851-0.603 0.031-0.932-0.22-1.112-0.517 0 0 0.913-0.255 0.93-1.171 0.039-1.133-0.918-1.958-1.426-1.961l2.657-4.679-2.805-4.939-2.422 4.271c-0.045-6e-3 -0.095-0.012-0.146-0.017 0.108-0.134 0.172-0.3 0.172-0.479 0-0.449-0.397-0.812-0.887-0.812s-0.888 0.364-0.888 0.812c0 0.183 0.067 0.35 0.178 0.486-0.126 0.015-0.236 0.033-0.316 0.057l-2.453-4.32-2.787 4.92 0.2 0.356h-1.068c0.411 0 1.304-2.798-0.833-3.551 0.63 1.655-0.634 1.894-0.651 2.807 5e-3 0.318 0.171 0.595 0.353 0.745l0.37 0.419c0.056 0.062 0.216 0.221 0.503 0.333 0.266 0.103 1.494 0.366 2.038 0.515l1.691 3.012c-0.725 0.011-0.942 0.032-1.037 0.048-0.786 0.141-1.333 1.149-1.333 1.965 0 0.521 0.39 1.011 0.39 1.011l0.062 0.08c-0.261 0.205-0.583 0.459-0.981 0.776-0.145 7e-3 -0.307 8e-3 -0.492-1e-3 -1.421-0.088-1.254-2.674-1.216-3.083 0 0-2.771 0.819-1.98 3.389-0.208-0.128-0.638-0.303-0.889-0.554-0.296-0.296-0.556-0.852-0.747-1.355 0.435 0.179 0.618 0.346 0.855 0.689 0.086-0.247 0.562-1.386-0.681-1.969 2.326-0.819 1.218-3.021 1.218-3.021-3e-3 8e-3 -0.833 1.577-2.286 2.138-1.465 0.565-2.188 2.126-2.086 3.252 0.161 1.639 1.66 2.61 3.513 2.832-1.768 0.485-2.229-0.026-3.451-0.674-0.187 1.58 0.548 2.479 1.55 3.14-0.822 0.411-1.209 1.281-1.468 2.447-1.493-0.674-1.831-2.685-1.831-2.685s-1.268 4.31 2.346 4.6c-0.356 0.269-1.469 1.012-1.589 2.482-0.115 3.833 2.512 3.793 3.543 5.491 0.268 0.451 0.218 1.226 0.148 1.723-6e-3 -1e-3 -0.012-2e-3 -0.018-2e-3 -0.392 0-0.71 0.319-0.71 0.711 0 0.074 0.014 0.145 0.036 0.212-0.158 0.086-0.293 0.208-0.399 0.364-0.247 0.364-0.291 0.861-0.115 1.296 0.081 0.197 0.171 0.372 0.268 0.528-0.744 0.148-1.4 0.324-1.4 0.324 1.153 0.626 2 0.761 2.011 3.289h0.83c-0.037 0.321-0.081 0.723-0.111 1.067-0.063 0.722-0.06 4.063-0.06 4.063s4.305 5.187 10.738 5.198l0.01-1e-3c5.936 6e-3 10.045-4.407 10.728-5.197 0.047-0.534 0.025-4.42-0.171-5.131h0.814c-1e-3 -1.197-0.125-2.286 2.015-3.321-0.713-0.145-0.655-0.164-1.397-0.304 0.094-0.152 0.938-1.411-0.252-2.177 0.021-0.067 0.035-0.138 0.035-0.212 0-0.392-0.318-0.711-0.71-0.711-6e-3 0-0.218-1.179 0.13-1.721 0.629-1.219 3.753-1.968 3.544-5.491-0.12-1.471-1.233-2.214-1.589-2.482 2.192-0.144 2.988-2.238 2.345-4.596zm-21.778-14.216c-0.326 0.643-0.803 0.744-0.979 0.99-0.112-0.55 0.414-0.856 0.617-1.256 0.213-0.42 0.154-0.945 0.113-1.212 0.28 0.264 0.463 1.057 0.249 1.478zm14.143 7.456c0.393 0.328 0.751 0.944 0.86 1.592 0.127 0.754-0.37 1.78-0.37 1.78s1.261-0.229 2.081-1.067c0.515-0.526 0.796-1.288 0.973-1.745 0.667 0.107 1.437 0.873 1.012 1.934-0.206 0.438-0.491 0.878-0.868 1.15-0.478 0.345-1.112 0.461-1.564 0.5 0.22-0.484 0.282-0.898 0.282-0.898-2.851 1.728-4.627 0.209-4.627 0.209 1.494-0.218 2.718-1.166 2.221-3.455zm-2.661 8.549c0.606 0.935 0.634 1.448 0.543 2.313 0.593 3e-3 1.728-0.518 0.99-2.351 0.34 0.551 1.115 1.818 1.698 2.125 1.552 0.816 3.089 0.36 3.089 0.36s-1.682-2.15-2.88-3.052c-0.49-0.442-1.377-0.958-1.52-1.097 0.244 0.113 1.347 0.789 2.145 0.597 0.17 0.312 0.501 0.979 1.147 1.394 0.708 0.455 1.546 0.715 2.208 0.861-0.574 0.101-1.312 0.031-1.898-0.147 0.596 0.693 1.272 1.57 1.272 1.57s-0.612 0.244-1.355 0.253c0.577 0.557 1.304 1.354 1.757 2.208 0 0 0.038 0.672-0.591 0.704-0.688-0.035-1.033-1.256-1.046-1.96 0 0-0.496 0.51-0.681 0.769v-1.766l-4.81 1e-3c0.112-0.469 0.249-1.392-0.073-2.389l5e-3 -0.393zm5.293 13.633c-0.352 0.399-0.329 1.649-0.344 1.788-0.283 0.013-0.669 0.049-1.035 0.144 0.37-1.109 0.618-2.238 0.734-3.384l0.01-0.22c0.196 0.293 0.454 0.586 0.663 0.804-0.102 0.123-0.167 0.279-0.167 0.451 1e-3 0.156 0.053 0.299 0.139 0.417zm-1.061-10.278v4.561h-18.817v-4.561h8.25l1.299 0.472s0.062-0.287 0.149-0.472h9.119zm-0.903 12.162c-0.041 0.119-0.537 1.426-0.673 1.648l-1.354 2.271-2.218-3.72-2.167 3.633 1.936 3.243c-0.318 0.332-0.63 0.637-0.933 0.921-0.135-0.093-0.324-0.242-0.546-0.48-0.348-0.374-0.45-0.817-0.45-0.817h-2e-3c0.02-0.109 0.051-0.251 0.097-0.377 0.111-0.307 0.212-0.411 0.212-0.411v-3e-3s-0.102-0.104-0.212-0.411c-0.092-0.252-0.126-0.565-0.126-0.565s-0.034 0.313-0.125 0.565c-0.111 0.307-0.212 0.411-0.212 0.411v2e-3s0.102 0.104 0.212 0.411l0.097 0.377h-1e-3s-0.102 0.443-0.451 0.817c-0.458 0.491-0.774 0.609-0.774 0.609s0.373-0.024 0.781-0.328c0.294-0.22 0.398-0.378 0.398-0.378l3e-3 0.062s-0.084 0.354-0.353 0.617c-0.274 0.267-0.494 0.355-0.494 0.355s0.256 0.033 0.548-0.199c0.271-0.213 0.274-0.258 0.274-0.258l-0.011 0.12s-0.038 0.182-0.208 0.371c-0.117 0.131-0.309 0.254-0.309 0.254s0.192-0.027 0.336-0.13c0.092-0.065 0.164-0.144 0.164-0.144l0.059 0.491c-0.307 0.254-0.592 0.476-0.841 0.66l-1.266-2.123-1.214 2.036c-0.267-0.193-0.565-0.423-0.888-0.691l0.045-0.373s0.073 0.078 0.164 0.144c0.144 0.103 0.336 0.13 0.336 0.13s-0.192-0.123-0.308-0.254c-0.17-0.189-0.208-0.371-0.208-0.371l-0.011-0.12s3e-3 0.045 0.274 0.258c0.292 0.232 0.548 0.199 0.548 0.199s-0.22-0.089-0.493-0.355c-0.269-0.263-0.353-0.617-0.353-0.617l3e-3 -0.062s0.103 0.158 0.397 0.378c0.408 0.304 0.781 0.328 0.781 0.328s-0.316-0.118-0.774-0.609c-0.349-0.374-0.451-0.817-0.451-0.817h-2e-3c0.02-0.109 0.051-0.251 0.097-0.377 0.111-0.307 0.212-0.411 0.212-0.411v-2e-3s-0.102-0.104-0.212-0.411c-0.092-0.252-0.126-0.565-0.126-0.565s-0.034 0.313-0.125 0.565c-0.111 0.307-0.212 0.411-0.212 0.411v2e-3s0.101 0.104 0.212 0.411l0.097 0.377h-1e-3s-0.102 0.443-0.45 0.817c-0.179 0.191-0.336 0.325-0.461 0.419-0.304-0.288-0.621-0.604-0.948-0.952l1.875-3.146-2.168-3.638-2.181 3.661c-0.56-0.858-1.038-1.732-1.428-2.621v-3e-3c-0.104-0.252-0.479-1.17-0.549-1.42l1.952-3.274-2.124-3.564h1.993c-0.07 0.147-0.176 0.326-0.33 0.491-0.458 0.491-0.774 0.609-0.774 0.609s0.373-0.024 0.781-0.328c0.295-0.22 0.398-0.378 0.398-0.378l3e-3 0.062s-0.084 0.356-0.352 0.618c-0.274 0.267-0.494 0.355-0.494 0.355s0.255 0.033 0.548-0.198c0.27-0.214 0.273-0.259 0.273-0.259l-0.011 0.12s-0.038 0.182-0.208 0.371c-0.116 0.131-0.309 0.254-0.309 0.254s0.192-0.027 0.336-0.13c0.091-0.065 0.164-0.144 0.164-0.144l0.121 1.01h8e-3l0.121-1.01s0.073 0.078 0.164 0.144c0.144 0.103 0.336 0.13 0.336 0.13s-0.192-0.123-0.309-0.254c-0.17-0.189-0.208-0.371-0.208-0.371l-0.011-0.12s3e-3 0.045 0.273 0.259c0.292 0.231 0.548 0.198 0.548 0.198s-0.219-0.089-0.494-0.355c-0.268-0.262-0.352-0.618-0.352-0.618l3e-3 -0.062s0.103 0.158 0.398 0.378c0.409 0.304 0.781 0.328 0.781 0.328s-0.316-0.118-0.774-0.609c-0.154-0.165-0.26-0.344-0.33-0.491h4.065c-0.07 0.147-0.176 0.326-0.329 0.491-0.458 0.491-0.775 0.609-0.775 0.609s0.372-0.024 0.782-0.328c0.294-0.22 0.397-0.378 0.397-0.378l3e-3 0.062s-0.084 0.356-0.353 0.618c-0.273 0.267-0.493 0.355-0.493 0.355s0.255 0.033 0.548-0.198c0.27-0.214 0.273-0.259 0.273-0.259l-0.011 0.12s-0.038 0.182-0.208 0.371c-0.117 0.131-0.309 0.254-0.309 0.254s0.192-0.027 0.336-0.13c0.091-0.065 0.164-0.144 0.164-0.144l0.121 1.01h8e-3l0.121-1.01s0.073 0.078 0.164 0.144c0.144 0.103 0.336 0.13 0.336 0.13s-0.192-0.123-0.308-0.254c-0.17-0.189-0.208-0.371-0.208-0.371l-0.011-0.12s3e-3 0.045 0.274 0.259c0.292 0.231 0.548 0.198 0.548 0.198s-0.219-0.089-0.493-0.355c-0.269-0.262-0.353-0.618-0.353-0.618l3e-3 -0.062s0.103 0.158 0.397 0.378c0.409 0.304 0.782 0.328 0.782 0.328s-0.317-0.118-0.775-0.609c-0.154-0.165-0.259-0.344-0.33-0.491h4.057c-0.07 0.147-0.176 0.326-0.33 0.491-0.458 0.491-0.774 0.609-0.774 0.609s0.373-0.024 0.781-0.328c0.295-0.22 0.397-0.378 0.397-0.378l3e-3 0.062s-0.084 0.356-0.352 0.618c-0.274 0.267-0.494 0.355-0.494 0.355s0.255 0.033 0.549-0.198c0.27-0.214 0.273-0.259 0.273-0.259l-0.011 0.12s-0.038 0.182-0.208 0.371c-0.117 0.131-0.309 0.254-0.309 0.254s0.192-0.027 0.336-0.13c0.091-0.065 0.164-0.144 0.164-0.144l0.121 1.01h7e-3l0.122-1.01s0.072 0.078 0.164 0.144c0.144 0.103 0.336 0.13 0.336 0.13s-0.192-0.123-0.308-0.254c-0.17-0.189-0.208-0.371-0.208-0.371l-0.011-0.12s3e-3 0.045 0.274 0.259c0.293 0.231 0.548 0.198 0.548 0.198s-0.219-0.089-0.493-0.355c-0.269-0.262-0.353-0.618-0.353-0.618l3e-3 -0.062s0.102 0.158 0.397 0.378c0.409 0.304 0.781 0.328 0.781 0.328s-0.316-0.118-0.774-0.609c-0.154-0.165-0.259-0.344-0.33-0.491h4.067c-0.07 0.147-0.176 0.326-0.33 0.491-0.458 0.491-0.775 0.609-0.775 0.609s0.373-0.024 0.781-0.328c0.295-0.22 0.398-0.378 0.398-0.378l2e-3 0.062s-0.084 0.356-0.352 0.618c-0.275 0.267-0.494 0.355-0.494 0.355s0.255 0.033 0.549-0.198c0.27-0.214 0.273-0.259 0.273-0.259l-0.011 0.12s-0.038 0.182-0.208 0.371c-0.117 0.131-0.309 0.254-0.309 0.254s0.192-0.027 0.336-0.13c0.091-0.065 0.163-0.144 0.163-0.144l0.122 1.01h7e-3l0.121-1.01s0.073 0.078 0.164 0.144c0.144 0.103 0.336 0.13 0.336 0.13s-0.192-0.123-0.308-0.254c-0.17-0.189-0.208-0.371-0.208-0.371l-0.011-0.12s3e-3 0.045 0.274 0.259c0.292 0.231 0.549 0.198 0.549 0.198s-0.22-0.089-0.494-0.355c-0.268-0.262-0.352-0.618-0.352-0.618l3e-3 -0.062s0.103 0.158 0.398 0.378c0.408 0.304 0.781 0.328 0.781 0.328s-0.316-0.118-0.775-0.609c-0.154-0.165-0.259-0.344-0.33-0.491h1.973l-2.106 3.568 2.052 3.455zm-6.118 8.488c-0.17-0.189-0.208-0.371-0.208-0.371l-0.011-0.12s3e-3 0.045 0.273 0.258c0.08 0.063 0.155 0.105 0.225 0.136-0.066 0.059-0.134 0.12-0.199 0.177-0.029-0.026-0.057-0.052-0.08-0.08zm4e-3 0.145c-0.082 0.07-0.162 0.139-0.24 0.205l0.044-0.369s0.073 0.078 0.164 0.144c0.01 6e-3 0.021 0.013 0.032 0.02zm0.104-0.534c-0.268-0.263-0.352-0.617-0.352-0.617l3e-3 -0.062s0.102 0.158 0.397 0.378c0.179 0.133 0.351 0.212 0.487 0.26-0.094 0.088-0.188 0.174-0.279 0.257-0.074-0.055-0.161-0.125-0.256-0.216zm2.96-1.758c1.121-1.327 2.033-2.699 2.733-4.109 0.12 0.549 0.418 1.306 0.565 1.783 0.143 0.461 0.167 0.825 0.161 1.062 0 1e-3 -1e-3 2e-3 -2e-3 3e-3 -0.026 0.044-2.364 3.948-7.11 4.792 0.95-0.72 2.231-1.847 3.653-3.531zm-13.758-4.229c0.898 1.776 1.635 2.863 2.788 4.229 1.427 1.689 2.724 2.817 3.689 3.537-4.26-0.747-6.601-3.972-7.066-4.676-0.388-0.947 0.469-1.987 0.589-3.09zm5.909 6.005s-0.038 0.182-0.208 0.371c-2e-3 3e-3 -6e-3 6e-3 -8e-3 9e-3 -0.058-0.051-0.117-0.103-0.175-0.155 0.042-0.024 0.084-0.052 0.128-0.087 0.27-0.213 0.273-0.258 0.273-0.258l-0.01 0.12zm0.01 0.575c-0.046-0.039-0.093-0.079-0.14-0.12 0.066-0.054 0.113-0.104 0.113-0.104l0.027 0.224zm-0.328-0.593c-0.062 0.06-0.12 0.109-0.174 0.152-0.084-0.076-0.169-0.154-0.255-0.235 0.115-0.049 0.246-0.118 0.381-0.219 0.295-0.22 0.397-0.378 0.397-0.378l4e-3 0.062s-0.085 0.355-0.353 0.618zm-7.86-10.851c0.212-0.221 0.473-0.518 0.67-0.815l1e-3 0.023c0.107 1.219 0.361 2.418 0.755 3.597-0.372-0.099-0.765-0.136-1.053-0.148-0.07-0.219 0.116-1.161-0.344-1.788 0.086-0.118 0.138-0.261 0.138-0.417 0-0.173-0.064-0.329-0.167-0.452zm0.448-8.196c-0.201-0.312-0.425-0.516-0.685-0.79-0.308 2.688-1.582 2.037-1.638 1.256 0.297-0.645 1.18-1.651 1.757-2.208-0.831-0.019-1.355-0.253-1.355-0.253s0.676-0.877 1.272-1.57c-0.535 0.159-1.332 0.249-1.898 0.147 1.048-0.269 2.738-0.679 3.354-2.255 0.555 0.134 1.418-0.187 2.145-0.597-0.454 0.314-2.126 1.241-4.373 4.122 2.858 0.432 3.622-0.472 4.76-2.459-0.209 0.7-0.33 1.167-0.117 1.883 0.292 0.981 1.309 0.67 1.309 0.67-0.419-2.251 0.988-3.08 1.384-3.39 0.244 0.372 0.874 1.324 0.97 1.473-0.785 0.98-1.352 1.509-1.352 1.509l1.858 0.677h-7.391v1.785zm9.173-14.384l0.825 1.514h-0.792l-0.825-1.514h0.792zm-1.337-0.401l0.869-1.535c0.117 0.062 0.223 0.115 0.311 0.153 0.375 0.163 0.75 0.341 1.279 0.44-0.366 0.317-1.391 0.605-1.391 0.605l-0.129 0.337h-0.939zm1.798 0c0.267-0.087 0.975-0.523 1.375-0.878 0.158 0.024 0.327 0.015 0.434 1e-3 0.281 0.204 0.877 0.68 1.505 0.877h-3.314zm0.248 13.308l-1.488-0.504s0.621-0.706 1.648-1.456c0.021 0.45 0.053 0.758 0.053 0.758s0.712-0.674 1.395-1.646c2.129-1.004 3.238-0.111 3.394 0.396-1.254-0.968-4.406 0.993-5.002 2.452zm2.877-0.309h-1.99c0.419-0.574 1.309-1.232 1.789-1.455 0.228 0.548 0.252 1.29 0.201 1.455zm2.056-3.004c-0.301-0.223-1.232-0.83-2.872-0.243 0.516-0.66 0.865-2.297 0.758-3.386 0.501 1.29 0.948 2.496 2.118 3.263l-4e-3 0.366zm-1.826-8.08l-0.827-1.512h0.785l0.837 1.524c-0.198-8e-3 -0.795-0.012-0.795-0.012zm0.756-1.915l-0.147-0.337s-0.943-0.258-1.369-0.589c0.506-0.094 0.913-0.335 1.187-0.521l0.838 1.492c-0.016 0-0.509-0.045-0.509-0.045zm-2.593 0.401l0.825 1.514h-0.873l-0.827-1.512 0.875-2e-3zm0.092 2.427c0.074 0.057 0.918 1.186 0.918 2.051 0 0.289-0.183 2.221-2.933 1.684 3.07-0.406 2.287-2.785 2.015-3.735zm-2.633 3.422s0.88 2.213 2.448 0.879c-0.896 1.323-1.047 2.272-1.032 3.63-0.896 0.617-1.705 1.369-1.705 1.369-0.645-1.066-3.503-5.439-4.29-6.08h5.878c-0.63 0.229-1.299 0.202-1.299 0.202zm-0.563 6.438l-1.624-0.55c0.161-0.176 0.33-0.371 0.749-0.901 0.137 0.191 0.875 1.451 0.875 1.451zm7.246-10.012c-2e-3 -4e-3 -5e-3 -8e-3 -8e-3 -0.012l0.01 0.01c-1e-3 0-2e-3 1e-3 -2e-3 2e-3zm-0.598-2.204c1.292 0.794 0.914 1.956 0.608 2.194l-1.282-2.248c0.08 1e-3 0.601 8e-3 0.674 0.054zm-0.284-9.02l0.285 0.491-2.218 3.915-0.283-0.493 2.216-3.913zm-3.283 2.34c0.258 0 0.467 0.192 0.467 0.428s-0.209 0.428-0.467 0.428-0.467-0.191-0.467-0.428 0.209-0.428 0.467-0.428zm0.612 1.365l-0.117 0.207 0.2 0.356-2.412-1e-3c0.022-0.032 0.927-0.841 2.329-0.562zm-4.09-3.705l0.302 0.528-2.118 3.74h-0.199l-0.201-0.355 2.216-3.913zm-2.824 4.776h7.283l1.058 1.883c-0.201 0.146-0.735 0.557-1.966 0.549-0.242 0-0.93-0.04-1.983-0.508-1.835-0.957-2.212-1.481-4.392-1.924zm2.447 4.173l0.827 1.513h-0.794l-0.806-1.477c2e-3 -1e-3 0.262-0.025 0.773-0.036zm-1.8 1.612c0-0.323 0.105-0.685 0.282-0.983l0.647 1.077c-0.28 0.178-0.575 0.444-0.702 0.564-0.084-0.137-0.227-0.405-0.227-0.658zm1.378 0.723c0.071-6e-3 0.314-0.015 1.135-0.015 0.828 0 1.932-0.013 2.815-7e-3 0.036 0.184 0.076 0.407 0.109 0.649l-3.23 2e-3s0.098 0.866-0.698 0.866h-2.045c0.896-0.712 1.754-1.385 1.914-1.495zm-2.996 1.997h3.448c0.804 0 0.872-0.746 0.873-0.867h2.792c0.089 1.136-0.099 1.488-0.297 1.695h-6.998c-0.266-0.047-0.751-0.4-0.793-0.425 0.113-0.061 0.81-0.403 0.975-0.403zm-5.188-2.507c0.176 0.457 0.458 1.218 0.973 1.745 0.82 0.838 2.005 1.02 2.005 1.02s-0.97-1.829 0.566-3.324c-0.261 1.325 0.032 2.469 0.751 2.878l-1.117 0.593s0.442 0.283 0.862 0.53c-1.538 0.234-2.902-0.755-2.902-0.755s0.062 0.413 0.282 0.898c-2.327-0.031-3.602-2.936-1.42-3.585zm0.178 6.362c-1.062-0.444-1.865-1.274-2.011-2.212 0.876 0.488 1.864 0.808 3.636 0.072 0.597 0.848 1.54 0.803 1.875 0.786-0.851 0.602-2.171 0.534-3.289-0.197 0.192 0.603 0.377 1.304 1.309 1.917-0.149 0.299-0.462 0.817-0.968 1.142-0.91 0.585-1.879 0.835-2.429 0.937 0.315-1.025 0.77-2.035 1.877-2.445zm-0.596 11.056c-0.086-0.059-1.741-0.978-0.761-3.55 0 0 1.244 1.279 2.147-0.971 1.748 2.31-1.684 2.875-1.684 2.875 2.637 0.841 2.557 3.001 1.633 4.25 0.174-1.078-0.471-2.025-1.335-2.604zm1.805-2.186v1.436c-0.354-0.44-0.758-0.648-1.047-0.807 0.478-0.168 0.861-0.42 1.047-0.629zm-1.474 6.54c0.119 0.09 0.266 0.146 0.426 0.146 0.081 0 0.158-0.017 0.23-0.041 0.146 0.214 0.236 0.605 0.236 1.092-0.044 0.584 0.212 1.239 0.33 1.435-0.801-0.123-2.429-1.824-1.222-2.632zm1.007 4.944h-0.4c-0.027-0.465-0.113-1.317-0.39-1.788-0.222-0.379-0.724-0.655-1.004-0.851 0.163-0.026 0.367-0.055 0.586-0.079 0.87 0.978 2.024 0.818 2.024 0.818s-0.238-0.312-0.387-0.896c0.488 0.03 0.904 0.12 1.179 0.248 0.096 0.256 0.199 0.511 0.309 0.765-0.107 0.39-0.381 0.776-0.583 0.977-0.556 0.489-1.263 0.213-1.334 0.806zm10.507 10.329c-5.715-5e-3 -9.647-4.212-10.234-4.879 0-0.412-0.193-5.576 0.497-5.534 0.435 0.083-0.584 0.736 0.361 2.208 0.028 0.049 2.796 4.713 8.482 5.167 0.482 0.305 0.67 0.441 0.704 0.457l0.122 0.056 0.121-0.058c0.033-0.015 0.371-0.155 0.822-0.462 4.938-0.43 7.868-4.188 8.285-4.826 1.136-1.488 0.31-2.286 0.56-2.538 0.682-0.151 0.516 4.948 0.517 5.53-0.59 0.667-4.52 4.874-10.237 4.879zm12.287-12.968c-0.28 0.195-0.782 0.472-1.004 0.851-0.276 0.471-0.363 1.323-0.39 1.788h-0.385c-8e-3 -0.246-0.208-0.394-0.421-0.421-0.501-0.073-1.124-0.259-1.505-1.344 0.114-0.262 0.222-0.525 0.322-0.79 0.274-0.124 0.681-0.212 1.159-0.241-0.148 0.584-0.387 0.896-0.387 0.896s1.154 0.159 2.025-0.818c0.217 0.025 0.422 0.053 0.586 0.079zm-0.789-2.305c0.819 0.371 0.5 2.1-1.222 2.632 0.487-0.7 0.214-2.115 0.565-2.527 0.073 0.023 0.374 0.121 0.657-0.105zm0.331-4.354c-0.416 0.29-1.574 1.206-1.336 2.604-0.856-1.188-1.107-3.339 1.634-4.25-2.085-0.455-2.709-1.511-1.684-2.875 0.796 2.003 2.009 1.196 2.146 0.971 0.352 0.804 0.719 2.593-0.76 3.55zm-1.782-0.634v-1.543c0.399 0.359 0.642 0.467 1.024 0.619-0.279 0.178-0.673 0.403-1.024 0.924zm-0.335-10.057c0.942-0.513 1.309-1.917 1.309-1.917s-1.671 1.253-3.289 0.197c0.059 6e-3 1.179 0.187 1.875-0.786 1.059 0.359 1.973 0.826 3.636-0.072-0.319 1.593-2.012 2.212-2.012 2.212 0.724 0.378 1.346 0.68 1.878 2.444-0.879-0.2-2.717-0.639-3.397-2.078z" fill="#fff"/>
	<path d="m34.901 39.156l3e-3 -0.062s0.103 0.157 0.398 0.376c0.408 0.305 0.781 0.33 0.781 0.33s-0.316-0.119-0.775-0.61c-0.349-0.374-0.45-0.817-0.45-0.817h-2e-3c0.02-0.109 0.051-0.25 0.097-0.377 0.111-0.307 0.213-0.411 0.213-0.411v-2e-3s-0.102-0.104-0.213-0.411c-0.092-0.252-0.125-0.566-0.125-0.566s-0.034 0.313-0.125 0.566c-0.111 0.307-0.212 0.411-0.212 0.411v2e-3s0.101 0.104 0.212 0.411l0.097 0.377h-1e-3s-0.102 0.443-0.451 0.817c-0.458 0.491-0.775 0.61-0.775 0.61s0.373-0.025 0.781-0.33c0.295-0.219 0.398-0.376 0.398-0.376l2e-3 0.062s-0.084 0.355-0.352 0.617c-0.275 0.267-0.494 0.355-0.494 0.355s0.255 0.033 0.549-0.198c0.27-0.214 0.273-0.258 0.273-0.258l-0.011 0.119s-0.038 0.181-0.208 0.371c-0.117 0.131-0.309 0.254-0.309 0.254s0.192-0.027 0.336-0.13c0.091-0.065 0.163-0.144 0.163-0.144l0.122 1.01h7e-3l0.121-1.01s0.073 0.078 0.164 0.144c0.144 0.102 0.336 0.13 0.336 0.13s-0.192-0.123-0.308-0.254c-0.17-0.19-0.208-0.371-0.208-0.371l-0.011-0.119s3e-3 0.044 0.274 0.258c0.292 0.231 0.549 0.198 0.549 0.198s-0.22-0.089-0.494-0.355c-0.268-0.261-0.352-0.617-0.352-0.617z" fill="#fff"/>
	<path d="m30.534 39.156l2e-3 -0.062s0.103 0.157 0.397 0.376c0.409 0.305 0.782 0.33 0.782 0.33s-0.316-0.119-0.775-0.61c-0.348-0.374-0.45-0.817-0.45-0.817h-1e-3c0.02-0.109 0.051-0.25 0.097-0.377 0.111-0.307 0.213-0.411 0.213-0.411v-2e-3s-0.101-0.104-0.213-0.411c-0.091-0.252-0.125-0.566-0.125-0.566s-0.034 0.313-0.125 0.566c-0.111 0.307-0.213 0.411-0.213 0.411v2e-3s0.102 0.104 0.213 0.411l0.096 0.377h-2e-3s-0.102 0.443-0.451 0.817c-0.458 0.491-0.774 0.61-0.774 0.61s0.373-0.025 0.781-0.33c0.295-0.219 0.398-0.376 0.398-0.376l3e-3 0.062s-0.084 0.355-0.352 0.617c-0.274 0.267-0.494 0.355-0.494 0.355s0.256 0.033 0.549-0.198c0.27-0.214 0.273-0.258 0.273-0.258l-0.011 0.119s-0.038 0.181-0.208 0.371c-0.117 0.131-0.309 0.254-0.309 0.254s0.192-0.027 0.336-0.13c0.091-0.065 0.164-0.144 0.164-0.144l0.121 1.01h7e-3l0.122-1.01s0.072 0.078 0.164 0.144c0.144 0.102 0.336 0.13 0.336 0.13s-0.192-0.123-0.309-0.254c-0.17-0.19-0.208-0.371-0.208-0.371l-0.011-0.119s3e-3 0.044 0.273 0.258c0.293 0.231 0.548 0.198 0.548 0.198s-0.219-0.089-0.494-0.355c-0.266-0.261-0.35-0.617-0.35-0.617z" fill="#fff"/>
	<path d="m26.171 39.156l3e-3 -0.062s0.103 0.157 0.398 0.376c0.409 0.305 0.781 0.33 0.781 0.33s-0.316-0.119-0.774-0.61c-0.349-0.374-0.451-0.817-0.451-0.817h-1e-3c0.02-0.109 0.051-0.25 0.097-0.377 0.111-0.307 0.213-0.411 0.213-0.411v-2e-3s-0.102-0.104-0.213-0.411c-0.092-0.252-0.126-0.566-0.126-0.566s-0.034 0.313-0.125 0.566c-0.111 0.307-0.213 0.411-0.213 0.411v2e-3s0.101 0.104 0.213 0.411l0.096 0.377h-1e-3s-0.102 0.443-0.45 0.817c-0.458 0.491-0.774 0.61-0.774 0.61s0.372-0.025 0.781-0.33c0.295-0.219 0.397-0.376 0.397-0.376l3e-3 0.062s-0.084 0.355-0.353 0.617c-0.274 0.267-0.494 0.355-0.494 0.355s0.256 0.033 0.548-0.198c0.271-0.213 0.274-0.257 0.274-0.257l-0.01 0.119s-0.038 0.181-0.208 0.371c-0.116 0.131-0.308 0.254-0.308 0.254s0.192-0.027 0.335-0.13c0.091-0.065 0.164-0.144 0.164-0.144l0.121 1.01h7e-3l0.122-1.01s0.073 0.078 0.164 0.144c0.144 0.102 0.336 0.13 0.336 0.13s-0.191-0.123-0.308-0.254c-0.17-0.19-0.208-0.371-0.208-0.371l-0.011-0.119s3e-3 0.044 0.274 0.258c0.292 0.231 0.548 0.198 0.548 0.198s-0.219-0.089-0.493-0.355c-0.27-0.262-0.354-0.618-0.354-0.618z" fill="#fff"/>
	<path d="m21.805 39.156l3e-3 -0.062s0.103 0.157 0.398 0.376c0.409 0.305 0.781 0.33 0.781 0.33s-0.316-0.119-0.774-0.61c-0.349-0.374-0.45-0.817-0.45-0.817h-3e-3c0.02-0.109 0.051-0.25 0.097-0.377 0.111-0.307 0.213-0.411 0.213-0.411v-2e-3s-0.101-0.104-0.213-0.411c-0.091-0.252-0.125-0.566-0.125-0.566s-0.034 0.313-0.125 0.566c-0.111 0.307-0.213 0.411-0.213 0.411v2e-3s0.102 0.104 0.213 0.411l0.097 0.377h-1e-3s-0.102 0.443-0.451 0.817c-0.458 0.491-0.774 0.61-0.774 0.61s0.373-0.025 0.781-0.33c0.295-0.219 0.398-0.376 0.398-0.376l3e-3 0.062s-0.084 0.355-0.352 0.617c-0.274 0.267-0.494 0.355-0.494 0.355s0.255 0.033 0.548-0.198c0.27-0.214 0.273-0.258 0.273-0.258l-0.011 0.119s-0.038 0.181-0.208 0.371c-0.116 0.131-0.309 0.254-0.309 0.254s0.192-0.027 0.336-0.13c0.091-0.065 0.164-0.144 0.164-0.144l0.121 1.01h8e-3l0.121-1.01s0.073 0.078 0.164 0.144c0.144 0.102 0.336 0.13 0.336 0.13s-0.192-0.123-0.309-0.254c-0.17-0.19-0.208-0.371-0.208-0.371l-0.011-0.119s3e-3 0.044 0.273 0.258c0.292 0.231 0.548 0.198 0.548 0.198s-0.219-0.089-0.494-0.355c-0.267-0.261-0.351-0.617-0.351-0.617z" fill="#fff"/>
	<path d="m28.883 27.316s0.192 0.379 0.192 0.71c0 0.45-0.414 0.819-0.864 0.819-0.449 0-0.846-0.393-0.846-0.842 0-0.331 0.186-0.714 0.186-0.714-0.698 0.284-1.181 0.983-1.181 1.733 0 1.014 0.826 1.84 1.84 1.84 1.015 0 1.841-0.826 1.841-1.84 0-0.756-0.458-1.425-1.168-1.706zm-0.673 3.215c-0.832 0-1.509-0.677-1.509-1.508 0-0.328 0.107-0.642 0.301-0.9-0.013 0.071-0.02 0.145-0.02 0.219 0 0.678 0.551 1.228 1.229 1.228 0.677 0 1.228-0.551 1.228-1.228 0-0.074-7e-3 -0.147-0.02-0.219 0.194 0.258 0.302 0.572 0.302 0.9-1e-3 0.831-0.678 1.508-1.511 1.508z" fill="#fff"/>
	<path d="m23.038 27.316s0.192 0.379 0.192 0.71c0 0.45-0.415 0.819-0.864 0.819s-0.846-0.393-0.846-0.842c0-0.331 0.186-0.714 0.186-0.714-0.698 0.284-1.181 0.983-1.181 1.733 0 1.014 0.826 1.84 1.84 1.84 1.015 0 1.841-0.826 1.841-1.84 0-0.756-0.458-1.425-1.168-1.706zm-0.672 3.215c-0.832 0-1.509-0.677-1.509-1.508 0-0.328 0.107-0.642 0.301-0.9-0.013 0.071-0.02 0.145-0.02 0.219 0 0.678 0.551 1.228 1.228 1.228s1.228-0.551 1.228-1.228c0-0.074-7e-3 -0.147-0.02-0.219 0.195 0.258 0.302 0.572 0.302 0.9-1e-3 0.831-0.678 1.508-1.51 1.508z" fill="#fff"/>
	<path d="m34.728 27.316s0.192 0.379 0.192 0.71c0 0.45-0.414 0.819-0.864 0.819s-0.846-0.393-0.846-0.842c0-0.331 0.187-0.714 0.187-0.714-0.698 0.284-1.181 0.983-1.181 1.733 0 1.014 0.826 1.84 1.84 1.84 1.015 0 1.841-0.826 1.841-1.84-1e-3 -0.756-0.46-1.425-1.169-1.706zm-0.673 3.215c-0.832 0-1.509-0.677-1.509-1.508 0-0.328 0.107-0.642 0.301-0.9-0.013 0.071-0.02 0.145-0.02 0.219 0 0.678 0.551 1.228 1.229 1.228 0.677 0 1.228-0.551 1.228-1.228 0-0.074-7e-3 -0.147-0.02-0.219 0.194 0.258 0.301 0.572 0.301 0.9-1e-3 0.831-0.677 1.508-1.51 1.508z" fill="#fff"/>
		<defs>
			<path id="b" d="m26.685 17.864c0 0.171 0.139 0.309 0.31 0.309 0.17 0 0.309-0.138 0.309-0.309s-0.139-0.309-0.309-0.309c-0.171 0-0.31 0.138-0.31 0.309"/>
		</defs>
		<use fill="#FFFFFF" xlink:href="#b"/>
		<clipPath id="d">
			<use xlink:href="#b"/>
		</clipPath>
		<path d="m27.304 17.864c0 0.171-0.139 0.309-0.309 0.309-0.171 0-0.31-0.138-0.31-0.309s0.139-0.309 0.31-0.309 0.309 0.138 0.309 0.309" clip-path="url(#d)" fill="#fff"/>
		<defs>
			<path id="a" d="m27.922 17.872c0 0.171 0.138 0.309 0.309 0.309s0.31-0.138 0.31-0.309-0.139-0.309-0.31-0.309-0.309 0.138-0.309 0.309"/>
		</defs>
		<use fill="#FFFFFF" xlink:href="#a"/>
		<clipPath id="c">
			<use xlink:href="#a"/>
		</clipPath>
		<path d="m28.541 17.873c0 0.171-0.139 0.309-0.309 0.309-0.171 0-0.309-0.138-0.309-0.309s0.139-0.309 0.309-0.309c0.17-1e-3 0.309 0.138 0.309 0.309" clip-path="url(#c)" fill="#fff"/>
	<polygon points="30.45 35.504 28.281 31.938 26.112 35.504 28.281 39.142" fill="#fff"/>
	<polygon points="30.45 42.799 28.281 39.161 26.112 42.799 28.281 46.436" fill="#fff"/>
	<polygon points="34.813 35.504 32.645 31.938 30.476 35.504 32.645 39.142" fill="#fff"/>
	<polygon points="26.084 35.504 23.916 31.938 21.747 35.504 23.916 39.142" fill="#fff"/>
	<path d="m19.025 45.894l0.025 0.03c-0.022 0.025-0.04 0.052-0.054 0.078s-0.024 0.058-0.032 0.094c-7e-3 0.037-8e-3 0.073-4e-3 0.11 3e-3 0.037 0.011 0.069 0.021 0.094s0.022 0.048 0.036 0.067l-0.03 0.025c-0.018-0.017-0.038-0.032-0.061-0.046-0.024-0.013-0.054-0.025-0.091-0.034-0.037-0.01-0.074-0.014-0.11-0.012-0.037 2e-3 -0.068 8e-3 -0.096 0.017-0.027 0.011-0.056 0.024-0.084 0.041l-0.025-0.029c0.022-0.026 0.04-0.053 0.054-0.079 0.014-0.025 0.024-0.058 0.031-0.094s9e-3 -0.073 4e-3 -0.11c-3e-3 -0.038-0.01-0.069-0.021-0.094-9e-3 -0.025-0.021-0.047-0.035-0.067l0.03-0.025c0.017 0.017 0.037 0.032 0.061 0.046s0.054 0.025 0.091 0.035c0.037 9e-3 0.074 0.013 0.11 0.011 0.037-1e-3 0.069-8e-3 0.096-0.017 0.027-0.01 0.055-0.024 0.084-0.041" fill="#fff"/>
	<path d="m37.335 46.244l0.024-0.03c0.03 0.017 0.059 0.03 0.087 0.04 0.028 9e-3 0.061 0.014 0.098 0.015 0.037 0 0.074-5e-3 0.109-0.015 0.036-0.011 0.066-0.022 0.089-0.037 0.023-0.014 0.042-0.029 0.06-0.047l0.031 0.025c-0.013 0.02-0.025 0.043-0.035 0.068-9e-3 0.025-0.015 0.058-0.018 0.096s0 0.075 8e-3 0.111c8e-3 0.035 0.019 0.066 0.034 0.091 0.014 0.025 0.033 0.052 0.055 0.077l-0.025 0.03c-0.03-0.017-0.059-0.03-0.087-0.04-0.029-9e-3 -0.061-0.015-0.098-0.015-0.038 0-0.074 5e-3 -0.11 0.015-0.036 0.011-0.065 0.023-0.089 0.037-0.022 0.014-0.042 0.029-0.06 0.047l-0.03-0.025c0.013-0.02 0.025-0.043 0.034-0.068s0.016-0.058 0.019-0.096c2e-3 -0.038 0-0.075-8e-3 -0.111-8e-3 -0.035-0.02-0.065-0.034-0.092-0.014-0.024-0.032-0.049-0.054-0.076" fill="#fff"/>
	<path d="m23.58 49.487l0.035 0.018c-9e-3 0.032-0.015 0.063-0.018 0.094-3e-3 0.029 0 0.062 8e-3 0.099 8e-3 0.036 0.022 0.07 0.04 0.104 0.018 0.032 0.037 0.059 0.056 0.077 0.019 0.02 0.039 0.035 0.059 0.048l-0.017 0.035c-0.023-8e-3 -0.047-0.014-0.074-0.017s-0.06-2e-3 -0.098 4e-3c-0.038 7e-3 -0.073 0.018-0.106 0.034s-0.06 0.033-0.081 0.054c-0.021 0.02-0.042 0.044-0.061 0.071l-0.036-0.017c0.01-0.033 0.016-0.064 0.018-0.094 3e-3 -0.029 0-0.062-8e-3 -0.099-8e-3 -0.036-0.021-0.07-0.04-0.104-0.017-0.032-0.037-0.059-0.056-0.077-0.019-0.02-0.039-0.035-0.059-0.048l0.018-0.035c0.022 9e-3 0.047 0.014 0.074 0.018 0.028 3e-3 0.06 2e-3 0.098-5e-3 0.038-6e-3 0.073-0.017 0.106-0.033s0.06-0.034 0.081-0.054c0.021-0.021 0.041-0.044 0.061-0.073" fill="#fff"/>
	<path d="m30.624 50.359l0.039-8e-3c0.012 0.032 0.026 0.061 0.042 0.086 0.015 0.025 0.038 0.05 0.066 0.074s0.059 0.043 0.094 0.059c0.034 0.016 0.065 0.024 0.091 0.028 0.027 4e-3 0.052 5e-3 0.076 3e-3l7e-3 0.038c-0.022 7e-3 -0.046 0.018-0.069 0.03-0.024 0.015-0.049 0.035-0.076 0.062-0.026 0.028-0.048 0.058-0.065 0.091-0.017 0.032-0.028 0.062-0.033 0.092-5e-3 0.028-7e-3 0.06-7e-3 0.094l-0.039 7e-3c-0.012-0.032-0.026-0.06-0.042-0.085-0.016-0.026-0.038-0.051-0.065-0.074-0.028-0.024-0.06-0.044-0.094-0.058-0.034-0.016-0.065-0.025-0.091-0.029-0.027-4e-3 -0.052-4e-3 -0.076-2e-3l-8e-3 -0.039c0.023-7e-3 0.046-0.017 0.07-0.03 0.024-0.014 0.049-0.034 0.075-0.062 0.026-0.027 0.048-0.058 0.065-0.09s0.027-0.063 0.033-0.092 8e-3 -0.06 7e-3 -0.095" fill="#fff"/>
	<g fill="#fff">
		<path d="m64.249 27.525l-1.513-2.431h-0.863v1.062c0 0.343 8e-3 1.045 0.027 1.297h-1.242c0.045-0.433 0.062-1.585 0.062-2.17v-1.989c0-0.576-0.018-1.737-0.062-2.169 0.323 0 1.385-0.036 1.799-0.045 1.684-0.018 2.602 0.828 2.574 1.872-0.018 0.882-0.459 1.458-1.287 1.854l0.973 1.413c0.225 0.325 0.657 0.919 0.856 1.18l-1.324 0.126zm-1.566-3.303c0.756 0 1.206-0.495 1.206-1.107 0-0.693-0.404-1.098-1.323-1.098-0.252 0-0.485 9e-3 -0.702 0.027v2.178h0.819z"/>
		<path d="m65.805 24.456c0-1.962 1.324-3.483 3.268-3.483 1.854 0 3.097 1.44 3.097 3.159 0 1.962-1.323 3.484-3.267 3.484-1.856 0-3.098-1.441-3.098-3.16zm5.213-0.153c0-1.485-0.865-2.394-2.017-2.394-1.224 0-2.044 1.089-2.044 2.376 0 1.485 0.855 2.395 2.017 2.395 1.223 0 2.044-1.09 2.044-2.377z"/>
		<path d="m73.348 21.054l1.646 2.727 0.496-0.783c0.351-0.549 0.81-1.341 1.134-1.89h1.296l-2.367 3.619v1.431c0 0.343 0.01 1.045 0.027 1.297h-1.242c0.045-0.433 0.062-1.585 0.062-2.17v-0.523l-0.945-1.484c-0.377-0.612-0.998-1.584-1.377-2.151l1.27-0.073z"/>
		<path d="m78.937 22.845c0.343-0.756 0.567-1.269 0.765-1.782l0.576-0.072 2.106 4.626c0.262 0.567 0.595 1.297 0.874 1.837l-1.252 0.071-0.729-1.683h-2.548l-9e-3 0.026c-0.18 0.441-0.459 1.152-0.639 1.585h-1.225l2.081-4.608zm0.135 2.16h1.853l-0.928-2.196-0.925 2.196z"/>
		<path d="m88.084 27.49c-0.558-0.036-1.233-0.046-1.908-0.046s-1.377 0.01-1.944 0.046c0.045-0.433 0.063-1.63 0.063-2.206v-1.989c0-0.576-0.019-1.737-0.063-2.169 0.352 0 0.954-9e-3 1.251-0.045-0.026 0.261-0.035 0.981-0.035 1.332v3.555c0 0.136 0 0.369 0.017 0.532 0.243 9e-3 0.513 9e-3 0.775 9e-3 0.711 0 1.323-9e-3 1.917-0.019-0.037 0.316-0.064 0.64-0.073 1z"/>
	</g>
	<g fill="#fff">
		<path d="m64.816 36.21c0.053-0.432 0.071-1.548 0.071-2.133v-0.684h-3.007v1.521c0 0.342 0.01 1.044 0.037 1.296h-1.252c0.045-0.432 0.063-1.584 0.063-2.169v-1.989c0-0.576-0.019-1.737-0.063-2.169 0.352 0 0.955-0.01 1.252-0.045-0.027 0.261-0.037 0.98-0.037 1.332v1.313h3.007v-0.432c0-0.576-0.019-1.737-0.071-2.169 0.359 0 0.963-0.01 1.25-0.045-0.018 0.261-0.026 0.98-0.026 1.332v3.744c0 0.342 9e-3 1.044 0.026 1.296h-1.25z"/>
		<path d="m67.174 33.213c0-1.962 1.322-3.483 3.268-3.483 1.854 0 3.096 1.44 3.096 3.159 0 1.962-1.323 3.483-3.268 3.483-1.854 0-3.096-1.44-3.096-3.159zm5.211-0.153c0-1.485-0.863-2.394-2.016-2.394-1.225 0-2.043 1.089-2.043 2.376 0 1.485 0.854 2.394 2.016 2.394 1.224 0 2.043-1.089 2.043-2.376z"/>
		<path d="m78.279 36.246c-0.558-0.036-1.232-0.045-1.908-0.045-0.674 0-1.377 9e-3 -1.943 0.045 0.045-0.432 0.062-1.629 0.062-2.205v-1.989c0-0.576-0.017-1.737-0.062-2.169 0.352 0 0.954-0.01 1.251-0.045-0.026 0.261-0.036 0.98-0.036 1.332v3.555c0 0.136 0 0.369 0.018 0.531 0.244 9e-3 0.514 9e-3 0.774 9e-3 0.712 0 1.323-9e-3 1.917-0.017-0.036 0.314-0.063 0.638-0.073 0.998z"/>
		<path d="m83.167 36.246c-0.558-0.036-1.232-0.045-1.908-0.045-0.675 0-1.377 9e-3 -1.944 0.045 0.045-0.432 0.062-1.629 0.062-2.205v-1.989c0-0.576-0.018-1.737-0.062-2.169 0.352 0 0.954-0.01 1.252-0.045-0.027 0.261-0.036 0.98-0.036 1.332v3.555c0 0.136 0 0.369 0.018 0.531 0.243 9e-3 0.514 9e-3 0.774 9e-3 0.711 0 1.323-9e-3 1.917-0.017-0.037 0.314-0.063 0.638-0.073 0.998z"/>
		<path d="m83.248 33.213c0-1.962 1.323-3.483 3.268-3.483 1.854 0 3.096 1.44 3.096 3.159 0 1.962-1.323 3.483-3.267 3.483-1.855 0-3.097-1.44-3.097-3.159zm5.211-0.153c0-1.485-0.863-2.394-2.016-2.394-1.225 0-2.043 1.089-2.043 2.376 0 1.485 0.854 2.394 2.016 2.394 1.225 0 2.043-1.089 2.043-2.376z"/>
		<path d="m97.162 34.5c-0.278 0.765-0.459 1.27-0.63 1.791l-0.549 0.063-1.62-4.429-0.981 2.691c-0.171 0.486-0.414 1.062-0.647 1.728h-0.559l-1.646-4.608c-0.198-0.566-0.459-1.296-0.676-1.836l1.233-0.072 1.458 4.474 1.009-2.862c0.107-0.342 0.449-1.277 0.566-1.611l0.54-0.071 1.594 4.536 0.882-2.8 0.495-1.602h1.224l-1.693 4.608z"/>
		<path d="m99.979 31.602c0.342-0.756 0.566-1.269 0.765-1.782l0.576-0.071 2.106 4.626c0.261 0.567 0.594 1.296 0.873 1.836l-1.252 0.072-0.729-1.684h-2.547l-0.01 0.027c-0.18 0.441-0.459 1.152-0.639 1.584h-1.225l2.082-4.608zm0.135 2.16h1.854l-0.927-2.196-0.927 2.196z"/>
		<path d="m104.87 29.81l1.646 2.728 0.495-0.783c0.352-0.549 0.811-1.341 1.135-1.891h1.296l-2.367 3.618v1.432c0 0.342 9e-3 1.044 0.027 1.296h-1.242c0.045-0.432 0.062-1.584 0.062-2.169v-0.522l-0.945-1.484c-0.378-0.612-0.999-1.585-1.377-2.151l1.27-0.074z"/>
	</g>
		<path d="m65.696 39.926v2.225c0 0.972-0.229 1.522-0.685 1.961-0.457 0.457-1.082 0.702-1.92 0.702-1.403 0-2.385-0.829-2.385-2.232v-1.826c0-0.541-0.017-1.632-0.059-2.038 0.338 0 0.896-9e-3 1.176-0.042-0.025 0.245-0.035 0.921-0.035 1.251v2.376c0 1.159 0.559 1.59 1.447 1.59 0.879 0 1.377-0.532 1.377-1.429v-1.708c0-0.541-0.016-1.632-0.066-2.038 0.338 0 0.904-9e-3 1.191-0.042-0.032 0.244-0.041 0.92-0.041 1.25z" fill="#EA6424"/>
		<path d="m66.812 42.623l0.025-1.995c9e-3 -0.541 0-1.564-0.033-1.971l0.507-0.067 3.567 4.203v-2.038c0-0.541-0.016-1.632-0.066-2.038 0.329 0 0.879-9e-3 1.166-0.042-0.033 0.245-0.059 0.921-0.067 1.251l-0.034 3.561c-8e-3 0.321-0.017 1.006 0.018 1.242l-0.508 0.068-3.551-4.152v2.799c0 0.33 8e-3 0.981 0.033 1.218h-1.149c0.051-0.407 0.085-1.489 0.092-2.039z" fill="#EA6424"/>
		<path d="m73.23 44.661c0.043-0.406 0.06-1.488 0.06-2.038v-1.868c0-0.541-0.017-1.632-0.06-2.038 0.338 0 0.896-9e-3 1.176-0.042-0.025 0.245-0.034 0.921-0.034 1.251v3.518c0 0.321 9e-3 0.981 0.034 1.218h-1.176z" fill="#EA6424"/>
		<path d="m76.52 38.666l1.717 4.304 1.057-2.73c0.187-0.499 0.389-1.04 0.559-1.514h1.175l-1.852 4.329c-0.313 0.719-0.507 1.192-0.668 1.683l-0.541 0.06-1.86-4.338c-0.22-0.533-0.524-1.218-0.762-1.726l1.175-0.068z" fill="#EA6424"/>
		<path d="m85.491 44.695c-0.523-0.034-1.166-0.043-1.784-0.043-0.642 0-1.327 9e-3 -1.859 0.043 0.042-0.406 0.059-1.522 0.059-2.072v-1.868c0-0.541-0.017-1.683-0.059-2.089 0.532 0.025 1.133 0.042 1.784 0.042 0.625 0 1.217-0.017 1.75-0.042-0.042 0.296-0.059 0.575-0.067 0.913-0.482-9e-3 -0.973-0.017-1.548-0.017-0.254 0-0.532 0-0.777 8e-3 -9e-3 0.145-9e-3 0.364-9e-3 0.475v1.099l2.004-0.017c-0.017 0.245-0.025 0.558-0.025 0.862l-1.979-0.017v1.336c0 0.118 0 0.338 9e-3 0.481 0.253 0 0.523 9e-3 0.777 9e-3 0.66 0 1.227-9e-3 1.784-0.025-0.034 0.288-0.051 0.583-0.06 0.922z" fill="#EA6424"/>
			<path d="m89.83 44.729l-1.421-2.282h-0.812v0.997c0 0.321 9e-3 0.981 0.025 1.218h-1.167c0.042-0.406 0.06-1.488 0.06-2.038v-1.868c0-0.541-0.018-1.632-0.06-2.038 0.305 0 1.302-0.033 1.691-0.042 1.581-0.018 2.443 0.777 2.418 1.759-0.017 0.829-0.432 1.37-1.209 1.742l0.913 1.327c0.211 0.305 0.617 0.862 0.804 1.108l-1.242 0.117zm-1.472-3.103c0.71 0 1.133-0.465 1.133-1.04 0-0.651-0.38-1.032-1.242-1.032-0.237 0-0.457 9e-3 -0.66 0.025v2.047h0.769z" fill="#EA6424"/>
		<path d="m93.373 44.813c-0.592 0-1.311-0.22-1.759-0.499l0.051-1.057c0.355 0.305 1.082 0.643 1.75 0.643 0.566 0 0.947-0.287 0.947-0.829 0-1.04-2.545-1.149-2.545-2.739 0-1.032 0.803-1.759 1.937-1.759 0.592 0 1.142 0.194 1.487 0.439l-0.27 0.888c-0.321-0.228-0.812-0.414-1.209-0.414-0.532 0-0.888 0.305-0.888 0.753 0 0.98 2.537 1.04 2.537 2.73 0 1.075-0.795 1.844-2.038 1.844z" fill="#EA6424"/>
		<path d="m96.333 44.661c0.042-0.406 0.059-1.488 0.059-2.038v-1.868c0-0.541-0.017-1.632-0.059-2.038 0.338 0 0.896-9e-3 1.175-0.042-0.025 0.245-0.033 0.921-0.033 1.251v3.518c0 0.321 8e-3 0.981 0.033 1.218h-1.175z" fill="#EA6424"/>
		<path d="m103.44 39.622c-0.625-9e-3 -1.175-0.018-1.91-0.018-9e-3 0.178-9e-3 0.397-9e-3 0.541v3.298c0 0.321 9e-3 0.981 0.034 1.218h-1.176c0.042-0.406 0.06-1.488 0.06-2.038v-1.665c0-0.347 0-0.896-0.018-1.354-0.735 0-1.318 9e-3 -1.944 0.018 0.025-0.279 0.034-0.635 0.034-0.956 0.777 0.025 1.538 0.042 2.469 0.042 0.947 0 1.733-0.017 2.528-0.042-0.042 0.305-0.059 0.592-0.068 0.956z" fill="#EA6424"/>
		<path d="m105.21 38.649l1.548 2.562 0.465-0.736c0.33-0.516 0.761-1.26 1.066-1.775h1.218l-2.224 3.399v1.344c0 0.321 8e-3 0.981 0.025 1.218h-1.167c0.042-0.406 0.059-1.488 0.059-2.038v-0.49l-0.888-1.395c-0.354-0.575-0.938-1.489-1.294-2.021l1.192-0.068z" fill="#EA6424"/>
			<path d="m60.695 50.083c0-1.74 1.173-3.088 2.896-3.088 1.644 0 2.745 1.276 2.745 2.801 0 1.739-1.173 3.088-2.896 3.088-1.643 0-2.745-1.278-2.745-2.801zm4.62-0.136c0-1.317-0.767-2.123-1.787-2.123-1.085 0-1.812 0.966-1.812 2.107 0 1.316 0.758 2.122 1.787 2.122 1.087 1e-3 1.812-0.965 1.812-2.106z" fill="#EA6424"/>
			<path d="m70.631 47.952c-0.454-8e-3 -0.918-0.016-1.46-0.016-0.239 0-0.495 0-0.726 8e-3 -8e-3 0.144-8e-3 0.351-8e-3 0.463v1.093l1.818-8e-3c-0.016 0.239-0.023 0.519-0.023 0.814l-1.795-0.017v1.301c0 0.312 0 0.926 0.031 1.149h-1.109c0.04-0.383 0.057-1.404 0.057-1.923v-1.764c0-0.511-0.017-1.589-0.057-1.972 0.503 0.024 1.07 0.04 1.684 0.04 0.591 0 1.149-0.016 1.645-0.04-0.033 0.289-0.049 0.545-0.057 0.872z" fill="#EA6424"/>
		<path d="m76.609 52.771c-0.494-0.031-1.093-0.039-1.691-0.039-0.599 0-1.221 8e-3 -1.724 0.039 0.04-0.383 0.056-1.444 0.056-1.954v-1.764c0-0.511-0.016-1.54-0.056-1.924 0.312 0 0.846-8e-3 1.109-0.04-0.024 0.232-0.032 0.87-0.032 1.182v3.151c0 0.12 0 0.328 0.016 0.472 0.216 8e-3 0.455 8e-3 0.687 8e-3 0.63 0 1.173-8e-3 1.7-0.016-0.032 0.28-0.057 0.567-0.065 0.885z" fill="#EA6424"/>
		<path d="m76.97 50.083c0-1.74 1.173-3.088 2.896-3.088 1.644 0 2.745 1.276 2.745 2.801 0 1.739-1.173 3.088-2.896 3.088-1.645 0-2.745-1.278-2.745-2.801zm4.621-0.136c0-1.317-0.767-2.123-1.788-2.123-1.086 0-1.811 0.966-1.811 2.107 0 1.316 0.758 2.122 1.787 2.122 1.085 1e-3 1.812-0.965 1.812-2.106z" fill="#EA6424"/>
		<path d="m83.674 50.817l0.024-1.884c8e-3 -0.511 0-1.477-0.032-1.859l0.479-0.063 3.368 3.966v-1.923c0-0.511-0.017-1.54-0.065-1.924 0.312 0 0.83-8e-3 1.102-0.04-0.032 0.232-0.056 0.87-0.063 1.182l-0.032 3.359c-8e-3 0.304-0.016 0.949 0.016 1.173l-0.479 0.063-3.352-3.918v2.642c0 0.312 8e-3 0.926 0.032 1.149h-1.086c0.049-0.383 0.08-1.404 0.088-1.923z" fill="#EA6424"/>
			<path d="m91.663 52.74h-1.812c0.04-0.383 0.057-1.404 0.057-1.923v-1.764c0-0.511-0.017-1.54-0.057-1.924 0.287 0 0.862-0.04 1.652-0.04 2.026 0 3.104 1.166 3.104 2.689 0 1.757-1.172 2.962-2.944 2.962zm-0.119-4.82c-0.224 0-0.415 8e-3 -0.606 0.024-8e-3 0.136-8e-3 0.343-8e-3 0.463v3.048c0 0.128 0 0.271 8e-3 0.415 0.207 0.024 0.366 0.04 0.63 0.04 1.444 0 2.019-0.926 2.019-2.043-1e-3 -1.18-0.727-1.947-2.043-1.947z" fill="#EA6424"/>
		<path d="m95.614 50.058c0-1.755 1.184-3.116 2.923-3.116 1.658 0 2.769 1.288 2.769 2.826 0 1.756-1.184 3.116-2.923 3.116-1.657 0-2.769-1.288-2.769-2.826zm4.662-0.137c0-1.328-0.773-2.142-1.804-2.142-1.096 0-1.828 0.974-1.828 2.126 0 1.328 0.766 2.141 1.804 2.141 1.095 0 1.828-0.974 1.828-2.125z" fill="#EA6424"/>
		<path d="m102.38 50.799l0.024-1.9c8e-3 -0.516 0-1.489-0.032-1.876l0.482-0.064 3.398 4.001v-1.94c0-0.515-0.017-1.554-0.064-1.939 0.313 0 0.837-9e-3 1.11-0.041-0.032 0.233-0.057 0.878-0.064 1.191l-0.032 3.39c-8e-3 0.307-0.016 0.959 0.017 1.184l-0.483 0.064-3.382-3.953v2.665c0 0.314 8e-3 0.935 0.032 1.159h-1.095c0.049-0.387 0.081-1.419 0.089-1.941z" fill="#EA6424"/>
</svg>
